# xmcd
# Copyright (C) 1995-1998 Ti Kan
#
# Track frame offsets:
#       150
#       70758
#       88052
#
# Disc length: 4672 seconds
#
# Revision: 0
# Processed by: cddbd v1.5.2PL0 Copyright (c) Steve Scherf et al.
# Submitted via: CD-Import v1.0
#
DISCID=1f123e03
DTITLE=Dj Silence - 111110 Electropique 
DYEAR=11
DGENRE=
TTITLE0=111110 Electropique 2
TTITLE1=111110 Electropique 3
TTITLE2=111110 Electropique 4
EXTD=
EXTT0=
EXTT1=
EXTT2=
PLAYORDER=
